<svg width="42" height="42" viewBox="0 0 42 42" fill="none" xmlns="http://www.w3.org/2000/svg">
<rect x="0.76416" y="0.881104" width="41.0292" height="41.0292" rx="4.5588" fill="white"/>
<path d="M31.4423 11.3411V28.9478C31.442 30.0552 31.0764 31.1315 30.4022 32.0099C29.7279 32.8883 28.7826 33.5196 27.713 33.806C26.6433 34.0925 25.509 34.0179 24.486 33.594C23.463 33.1701 22.6085 32.4205 22.0549 31.4615C21.5014 30.5024 21.2797 29.3875 21.4244 28.2897C21.569 27.1918 22.0718 26.1724 22.8549 25.3894C23.6379 24.6064 24.6574 24.1037 25.7553 23.9592C26.8532 23.8147 27.9681 24.0365 28.927 24.5902V15.1139H17.6084V28.9478C17.6081 30.0552 17.2425 31.1315 16.5682 32.0099C15.894 32.8883 14.9487 33.5196 13.8791 33.806C12.8094 34.0925 11.6751 34.0179 10.6521 33.594C9.62915 33.1701 8.77461 32.4205 8.22105 31.4615C7.66749 30.5024 7.44583 29.3875 7.59046 28.2897C7.73509 27.1918 8.23792 26.1724 9.02097 25.3894C9.80402 24.6064 10.8235 24.1037 11.9214 23.9592C13.0193 23.8147 14.1342 24.0365 15.0931 24.5902V11.3411H31.4423Z" fill="#1E1E1E"/>
</svg>
