<svg width="1149" height="1053" viewBox="0 0 1149 1053" fill="none" xmlns="http://www.w3.org/2000/svg">
<path d="M576.553 -558.381C356.543 -507.295 -7.07201 -320.063 298.542 20.1726C680.56 445.467 984.633 -126.419 958.709 411.589C932.785 949.597 1323.83 1129 1409.64 737.027C1495.45 345.053 959.572 129.375 1235.39 42.7717" stroke="white" stroke-opacity="0.5" stroke-width="1.14138"/>
<path d="M590.212 -592.138C380.271 -542.372 34.0808 -361.995 326.799 -35.388C692.282 372.227 985.078 -169.344 966.168 346.198C948.703 862.528 1325.54 1035.75 1410.52 664.899C1495.5 294.05 987.248 91.2013 1252.56 13.0618" stroke="white" stroke-opacity="0.5" stroke-width="1.14138"/>
<path d="M594.715 -601.111C394.842 -552.666 66.0767 -379.141 345.898 -66.1642C694.847 323.771 976.367 -187.484 964.471 305.591C955.464 800.243 1318.08 967.281 1402.24 617.556C1486.39 267.831 1005.77 77.8116 1260.57 8.13605" stroke="white" stroke-opacity="0.5" stroke-width="1.14138"/>
<path d="M603.816 -622.454C414.011 -575.33 102.67 -408.659 369.595 -109.311C702.009 262.945 972.254 -217.995 967.371 252.614C966.822 725.588 1315.23 886.442 1398.55 557.842C1481.88 229.242 1028.88 52.0513 1273.18 -9.16022" stroke="white" stroke-opacity="0.5" stroke-width="1.14138"/>
<path d="M612.932 -643.78C433.195 -597.977 139.279 -438.16 393.308 -152.441C709.187 202.135 968.155 -248.489 970.286 199.654C978.195 650.95 1312.39 805.62 1394.88 498.144C1477.38 190.669 1052.02 26.3077 1285.81 -26.4398" stroke="white" stroke-opacity="0.5" stroke-width="1.14138"/>
<path d="M622.066 -665.085C452.398 -620.602 175.906 -467.639 417.039 -195.55C716.383 141.347 964.076 -278.962 973.22 146.714C989.588 576.332 1309.57 724.819 1391.24 438.468C1472.91 152.117 1075.17 0.585473 1298.45 -43.6981" stroke="white" stroke-opacity="0.5" stroke-width="1.14138"/>
<path d="M631.221 -686.367C471.621 -643.205 212.555 -497.095 440.791 -238.635C723.601 80.5816 960.017 -309.412 976.174 93.7983C1001 501.738 1306.77 644.042 1387.61 378.815C1468.45 113.589 1098.34 -25.1135 1311.11 -60.933" stroke="white" stroke-opacity="0.5" stroke-width="1.14138"/>
<path d="M640.403 -707.619C490.871 -665.778 249.23 -526.521 464.569 -281.691C730.845 19.8464 955.984 -339.832 979.156 40.9122C1012.44 427.174 1303.99 563.294 1384.01 319.193C1464.02 75.091 1121.54 -50.7825 1323.8 -78.138" stroke="white" stroke-opacity="0.5" stroke-width="1.14138"/>
<path d="M649.616 -728.837C510.152 -688.316 285.936 -555.913 488.379 -324.712C738.119 -40.8544 951.983 -370.217 982.168 -11.9395C1023.91 352.645 1301.25 482.581 1380.44 259.604C1459.62 36.627 1144.76 -76.4172 1336.53 -95.3088" stroke="white" stroke-opacity="0.5" stroke-width="1.14138"/>
<path d="M658.867 -750.011C529.472 -710.811 322.68 -585.262 512.227 -367.69C745.433 -101.512 948.02 -400.56 985.219 -64.7481C1035.42 278.158 1298.54 401.911 1376.9 200.058C1455.26 -1.7938 1168.03 -102.009 1349.29 -112.436" stroke="white" stroke-opacity="0.5" stroke-width="1.14138"/>
<path d="M668.166 -771.132C548.839 -733.253 359.472 -614.557 536.122 -410.614C752.793 -162.116 944.105 -430.849 988.317 -117.503C1046.98 203.725 1295.89 321.294 1373.42 140.567C1450.95 -40.1611 1191.35 -127.547 1362.09 -129.51" stroke="white" stroke-opacity="0.5" stroke-width="1.14138"/>
<path d="M677.525 -792.186C568.266 -755.627 396.324 -643.786 560.078 -453.472C760.215 -222.654 940.25 -461.07 991.475 -170.191C1058.59 129.359 1293.29 240.745 1369.99 81.1416C1446.7 -78.4614 1214.72 -153.018 1374.96 -146.517" stroke="white" stroke-opacity="0.5" stroke-width="1.14138"/>
<path d="M686.961 -813.153C587.771 -777.914 433.254 -672.927 584.111 -496.242C767.713 -283.103 936.473 -491.205 994.711 -222.792C1070.29 55.0803 1290.77 160.283 1366.65 21.8042C1442.52 -116.674 1238.17 -178.401 1387.91 -163.437" stroke="white" stroke-opacity="0.5" stroke-width="1.14138"/>
<path d="M696.5 -834.006C607.378 -800.088 470.285 -701.954 608.247 -538.899C775.314 -343.44 932.797 -521.226 998.05 -275.279C1082.08 -19.0849 1288.35 79.9338 1363.4 -37.42C1438.45 -154.774 1261.73 -203.672 1400.95 -180.243" stroke="white" stroke-opacity="0.5" stroke-width="1.14138"/>
<path d="M706.178 -854.703C627.124 -822.107 507.456 -730.826 632.521 -581.4C783.054 -403.621 929.261 -551.091 1001.53 -327.611C1094.02 -93.0946 1286.08 -0.259297 1360.3 -96.4884C1434.52 -192.718 1285.42 -228.786 1414.14 -196.894" stroke="white" stroke-opacity="0.5" stroke-width="1.14138"/>
<path d="M716.049 -875.186C647.064 -843.91 544.82 -759.483 656.989 -623.686C790.987 -463.587 925.918 -580.742 1005.2 -379.728C1106.15 -166.889 1283.99 -80.2377 1357.39 -155.342C1430.78 -230.447 1309.31 -253.686 1427.52 -213.33" stroke="white" stroke-opacity="0.5" stroke-width="1.14138"/>
</svg>
