<svg width="1597" height="1080" viewBox="0 0 1597 1080" fill="none" xmlns="http://www.w3.org/2000/svg">
<path d="M618.162 368.037C921.562 226.675 943.613 -192.644 916.713 -384.633C840.878 -1014.54 -205.614 -490.446 -58.8448 -1.28189C87.9238 487.883 -916.812 24.3108 -812.742 321.901C-708.672 619.491 -133.249 905.636 160.7 885.528C454.65 865.42 238.912 544.739 618.162 368.037Z" stroke="white" stroke-opacity="0.5"/>
<path d="M620.132 307.555C915.629 170.13 936.848 -237.962 910.52 -424.83C836.24 -1037.93 -182.968 -528.39 -39.6711 -52.2341C103.626 423.922 -875.526 -27.7669 -773.948 261.917C-672.371 551.601 -111.588 830.388 174.779 810.969C461.145 791.55 250.762 479.336 620.132 307.555Z" stroke="white" stroke-opacity="0.5"/>
<path d="M599.981 259.103C887.211 125.466 907.894 -271.277 882.332 -452.945C810.224 -1048.98 -180.479 -553.496 -41.2684 -90.6002C97.9416 372.295 -853.688 -66.7151 -755.001 214.899C-656.314 496.514 -111.296 767.481 167.043 748.569C445.383 729.656 240.943 426.15 599.981 259.103Z" stroke="white" stroke-opacity="0.5"/>
<path d="M601.744 219.94C880.977 89.9897 901.118 -295.748 876.284 -472.374C806.238 -1051.87 -156.886 -570.059 -21.597 -120.016C113.691 330.027 -811.368 -96.7361 -715.457 177.059C-619.546 450.853 -89.7468 714.264 180.834 695.856C451.414 677.449 252.701 382.378 601.744 219.94Z" stroke="white" stroke-opacity="0.5"/>
<path d="M532.578 208.212C787.465 89.5992 805.843 -262.497 783.171 -423.719C719.223 -952.676 -159.922 -512.9 -36.4214 -102.104C87.0793 308.692 -757.335 -80.8648 -669.781 169.053C-582.228 418.97 -98.6155 659.416 148.374 642.617C395.363 625.819 213.97 356.479 532.578 208.212Z" stroke="white" stroke-opacity="0.5"/>
<path d="M518.481 147.991C765.189 32.9905 783.173 -308.04 761.327 -464.18C699.749 -976.469 -151.206 -550.117 -31.9344 -152.3C87.337 245.517 -729.538 -131.395 -644.959 110.621C-560.38 352.637 -92.5502 585.295 146.459 568.91C385.467 552.525 210.096 291.742 518.481 147.991Z" stroke="white" stroke-opacity="0.5"/>
<path d="M491.586 122.787C730.209 11.6492 747.509 -318.093 726.331 -469.072C666.616 -964.427 -156.443 -552.379 -40.9513 -167.696C74.5409 216.986 -715.781 -147.644 -633.893 86.3838C-552.006 320.412 -99.3783 545.481 131.825 529.694C363.029 513.906 193.307 261.71 491.586 122.787Z" stroke="white" stroke-opacity="0.5"/>
<path d="M445.985 82.0037C676.342 -25.347 693.106 -343.741 672.693 -489.52C615.15 -967.812 -179.404 -569.817 -67.9984 -198.395C43.4067 173.027 -719.393 -178.925 -640.396 47.0335C-561.399 272.992 -124.536 490.241 98.6398 474.96C321.816 459.679 158.038 216.192 445.985 82.0037Z" stroke="white" stroke-opacity="0.5"/>
<path d="M426.601 20.7669C648.873 -82.7216 664.953 -389.828 645.209 -530.446C589.529 -991.803 -177.13 -608.112 -69.5039 -249.824C38.122 108.463 -698.125 -231.209 -621.819 -13.2374C-545.513 204.734 -123.853 414.394 91.5176 399.71C306.888 385.027 148.76 150.127 426.601 20.7669Z" stroke="white" stroke-opacity="0.5"/>
<path d="M406.763 -28.8615C620.858 -128.737 636.543 -424.778 617.624 -560.313C564.315 -1005 -174.154 -634.736 -70.7572 -289.428C32.6395 55.8808 -676.068 -271.145 -602.737 -61.0758C-529.406 148.994 -123.528 350.866 83.8621 336.596C291.252 322.327 139.146 95.9833 406.763 -28.8615Z" stroke="white" stroke-opacity="0.5"/>
<path d="M383.174 -77.9808C589.184 -173.993 604.189 -458.746 585.94 -589.121C534.499 -1016.88 -176.079 -660.919 -76.4652 -328.744C23.1483 3.43144 -659.002 -311.321 -588.364 -109.238C-517.727 92.845 -127.054 287.132 72.5305 273.462C272.115 259.792 125.661 42.0341 383.174 -77.9808Z" stroke="white" stroke-opacity="0.5"/>
<path d="M353.723 -111.694C551.736 -204.021 566.196 -477.768 548.674 -603.1C499.29 -1014.31 -183.706 -672.027 -88.0102 -352.705C7.68555 -33.3835 -647.899 -335.882 -580.035 -141.62C-512.171 52.6421 -136.715 239.369 55.1115 226.202C246.938 213.035 106.207 3.71393 353.723 -111.694Z" stroke="white" stroke-opacity="0.5"/>
</svg>
