<svg xmlns="http://www.w3.org/2000/svg" width="41" height="40" fill="none"><path fill="#fff" d="M20.22.002C9.07.002 0 8.97 0 20c0 11.026 9.07 19.998 20.22 19.998 11.149 0 20.22-8.972 20.22-19.998C40.44 8.97 31.368.002 20.22.002Zm0 35.54C11.553 35.543 4.503 28.57 4.503 20c0-8.574 7.05-15.546 15.715-15.546 8.667 0 15.716 6.972 15.716 15.546 0 8.57-7.05 15.543-15.716 15.543Z"/><path fill="#fff" d="M26.856 23.623c-1.292 2.192-3.694 3.552-6.268 3.552-3.998 0-7.255-3.22-7.255-7.175 0-3.958 3.257-7.18 7.255-7.18 2.574 0 4.976 1.366 6.268 3.554l.167.286h4.873l-.293-.776a11.602 11.602 0 0 0-4.305-5.46 11.824 11.824 0 0 0-6.71-2.07c-6.49 0-11.77 5.226-11.77 11.646 0 6.42 5.28 11.64 11.77 11.64 2.416 0 4.735-.714 6.71-2.068a11.603 11.603 0 0 0 4.305-5.46l.293-.776h-4.873l-.167.287Z"/></svg>