<svg xmlns="http://www.w3.org/2000/svg" width="53" height="49" fill="none"><path fill="#fff" d="M48.55 23.7608c-2.1222-.4138-4.3327-.6849-6.1294-.7582l-.3184-.0123c.0743-.1834.1291-.3057.1468-.3261.0389-.0367.0708-.1916.0743-.3424 0-.0816.0318-.3547.0813-.7135.4881.0204 1.1318.0367 1.8392.0408 2.7163.0265 5.56.2793 7.5106.6767 1.1618.2365 1.5456.2283.6896-.0122-.87-.2446-3.4449-.5993-5.4962-.7542-1.5044-.1037-3.0115-.1459-4.5184-.1264l.1132-.7541c.1627-1.0274.2175-2.0588.221-4.1114.0036-3.1798-.145-4.0563-1.0433-6.164-.3392-.81213-.7703-1.56884-1.2822-2.2503.4369-1.488.4245-3.78725-.0265-5.80522-.3714-1.655138-.504-1.761131-1.8038-1.443149-1.1053.271099-1.9895.640039-3.123 1.298429-.5376.31187-1.2768.79496-1.8127 1.17816-1.397-.56462-2.8419-.93764-4.3857-1.14147-1.5615-.20384-5.3937-.08969-6.7554.19976-1.3252.28537-2.5277.63189-3.6076 1.03955-.5429-.3832-1.3263-.90298-1.8887-1.22912-1.1389-.66042-2.0231-1.02733-3.1301-1.298427-1.2981-.320021-1.4325-.211988-1.8038 1.443147-.4598 2.04447-.4634 4.38245-.0089 5.86637.0531.16918.0849.28945.0973.38321-1.8427 2.67436-2.444 5.66656-2.0443 9.84526.1061 1.0864.2652 2.0852.4916 3.0004-1.17601-.0081-2.84718.0408-4.05679.1305-2.05492.1569-4.62976.5096-5.49983.7542-.854156.2384-.473943.2446.68969.0122 1.95058-.3955 4.79599-.6523 7.5123-.6727.51285-.004.99033-.0163 1.40413-.0285.1238.4824.2653.9431.4244 1.382h-.0088c-1.79497.0734-4.00374.3465-6.12763.7542-1.59159.3098-3.94361.9254-4.219484 1.1007-.290024.1875-.053054.1468 1.179544-.214 2.25122-.6564 5.17798-1.1619 8.80327-1.5084l.4067-.0408c.7781 2.0791 1.9754 3.669 3.6695 4.9124 1.0363.7583 2.6969 1.539 3.5334 1.6613.2299.0326.8983.1916 1.4855.3506.5888.159 1.7401.3975 2.5571.534h.0177l-.0425.0326c-.9903.5912-1.634 1.5166-2.069 2.9699-.1945.0673-.4351.159-.6968.265-.9373.3669-1.2998.4403-2.2459.4484-.985.0082-1.2202-.0407-1.8038-.3587-.9048-.5131-1.6624-1.3155-2.1822-2.3115-.8843-1.6837-2.4175-2.8741-3.69607-2.8741-1.08935 0-1.29626.5096-.50754 1.2536 1.18841 1.1211 2.07611 2.2626 2.44041 3.135l.7021 1.6796c.1945.4627.6048 1.0905.9974 1.5247.9231 1.0151 1.8144 1.5002 3.1443 1.7285.8913.1508 1.1105.1508 2.1628-.0041.5075-.0713.9372-.1549 1.3192-.2588v1.7407c0 3.5997-.0354 4.7575-.1591 5.0959-.2352.6441-.7605 1.3045-1.268 1.6042-.5076.2996-.6649.6278-.451.9294.1203.1631.3484.1917 1.1142.1346 1.4536-.1019 2.4811-.7236 3.0063-1.8142.1662-.3526.2051-1.0599.2582-4.7289.0566-3.9789.0813-4.3621.3059-4.9328.1344-.3363.3307-.7033.4421-.8031.1822-.1753.1946.1712.1946 4.9328 0 5.2548-.0478 5.8908-.504 6.8998-.1026.2303-.2971.5299-.4333.6726-.2388.2508-.3396.8928-.1733 1.0865.2741.3139 1.6482-.1794 2.398-.8602 1.2768-1.1659 1.4289-2.1301 1.4395-9.091l.0053-4.0869.389.0407.3856.0408.0636 5.3405c.0708 6.0172.0814 6.1048.9691 7.2667.504.6563 1.0116 1.0192 1.8392 1.3045 1.1035.3812 1.436-.2099.6932-1.2352-.8081-1.117-.8488-1.543-.8028-8.1432.03-4.2316.03-4.2316.2652-3.985.5005.5218.596 1.3779.596 5.3466 0 4.9287.1238 5.3976 1.6322 6.2577.7074.3975.902.4485 1.8074.4485.962.0061 1.0204-.0102 1.0557-.2997.0301-.2344-.0884-.3934-.5376-.7093-.5545-.3772-.9924-.9454-1.252-1.6246-.0973-.2568-.1627-1.9527-.2069-5.4424-.0637-4.8798-.0778-5.102-.3413-5.8663-.3537-1.0274-.8984-1.8386-1.5863-2.3767-.1769-.1346-.3572-.2446-.5889-.3303.283-.0312.5588-.0686.8276-.1121 2.78-.428 4.2496-.7827 5.4291-1.3086 2.4935-1.1068 4.1824-2.9454 5.0966-5.5524.0814-.2324.1627-.4526.2299-.6319l.7074.0693c3.6253.3526 6.5521.8561 8.8033 1.5145 1.2344.3628 1.4678.4076 1.1813.216-.2688-.1732-2.6208-.7868-4.2124-1.0946h.0018Zm-10.6354-.0652c-.4121 1.0436-1.5615 2.3849-2.49 2.9108-.916.5218-2.352.9172-3.9789 1.1088-1.1142.1305-7.3161.1692-8.34.053-3.3901-.3832-5.2876-1.1353-6.69-2.6417-1.3263-1.4309-1.9452-3.3734-1.8391-5.7644.0707-1.4962.3837-2.4358 1.2025-3.5773.7427-1.0396 1.5279-1.6817 2.4511-2.0078.7745-.2731 3.1478-.2976 6.3345-.0611 1.4094.1019 2.5748.1019 3.9825 0 3.3353-.2447 5.5617-.2161 6.384.0774 1.291.4607 2.4705 1.7 3.1779 3.3511.3183.7378.382 1.0517.428 2.1912.0636 1.5695-.1716 3.2348-.619 4.358l-.0035.002Zm-16.8178-6.7388c-1.8975-.3832-2.9816 3.3633-1.5262 5.2732.6897.9051 1.3034 1.0539 2.0691.5035.7127-.5096 1.0964-1.4676 1.0964-2.7069 0-1.6552-.6508-2.87-1.6411-3.0739l.0018.0041Zm11.5178.2242c-1.8975-.3832-2.9834 3.3572-1.5279 5.2712.695.9071 1.3086 1.06 2.0761.5035.7074-.5096 1.0964-1.4676 1.0964-2.7069 0-1.647-.6543-2.866-1.6446-3.0678Zm-5.1037 7.3626c-.0424.1508-.2405.375-.4421.4953-.504.2996-.8665.1957-1.4024-.3669-.3307-.3425-.481-.5239-.5836-.1631-.0919.3343.4952 1.0049.9515 1.2108.4173.1936.7162.1997 1.1671-.0204.451-.214.8436-.795.8436-1.172 0-.3506-.4368-.3343-.5359.0203l.0018-.004Zm-.5624-1.1721c.2883-.2956.3537-.8969.0778-1.2189-.2758-.3221-.8364-.2711-1.0557.0876-.2564.4199-.1203.7399.0619 1.0803.2829.2528.6631.3058.9143.049l.0017.002Z"/></svg>