<svg width="42" height="42" viewBox="0 0 42 42" fill="none" xmlns="http://www.w3.org/2000/svg">
<path d="M22.4842 0.614858L41.3807 19.5151C42.7035 20.8381 41.767 23.0998 39.8963 23.0998H37.7967V35.6999C37.7967 37.3708 37.133 38.9733 35.9518 40.1548C34.7705 41.3362 33.1684 42 31.4978 42H29.3982V27.2998C29.3983 25.6929 28.7845 24.1466 27.6822 22.9774C26.58 21.8083 25.0728 21.1045 23.4689 21.0103L23.0994 20.9998H18.9002C17.2296 20.9998 15.6275 21.6635 14.4462 22.845C13.265 24.0265 12.6013 25.629 12.6013 27.2998V42H10.5017C8.83117 42 7.22904 41.3362 6.04778 40.1548C4.86652 38.9733 4.20289 37.3708 4.20289 35.6999V23.0998H2.10328C0.234627 23.0998 -0.703899 20.8381 0.618856 19.5151L19.5154 0.614858C19.9091 0.221164 20.443 0 20.9998 0C21.5565 0 22.0905 0.221164 22.4842 0.614858ZM23.0994 25.1998C23.6562 25.1998 24.1903 25.4211 24.584 25.8149C24.9778 26.2087 25.199 26.7429 25.199 27.2998V42H16.8006V27.2998C16.8006 26.7855 16.9894 26.289 17.3312 25.9046C17.6729 25.5203 18.1438 25.2747 18.6545 25.2145L18.9002 25.1998H23.0994Z" fill="white"/>
</svg>
